#Comment line ignore any data following # character 
#Hierarchical Translation and Rotation (.htr) file 
[Header]	
#Header keywords are followed by a single value 
FileType HTR		#Single word string
DataType HTRS		#Translation followed by rotation and scale data
FileVersion 1		#integer
NumSegments 64		#integer
NumFrames 3		#integer
DataFrameRate 30		#integer, data frame rate in this file
EulerRotationOrder ZYX
CalibrationUnits mm
RotationUnits Degrees
GlobalAxisofGravity Y
BoneLengthAxis Y
ScaleFactor 1.00
[SegmentNames&Hierarchy]
#CHILD	PARENT
Pinger_Root GLOBAL
Pelvis Pinger_Root
L_Hip Pelvis
R_Hip Pelvis
Rear_Leg01 Pelvis
Spine1 Pelvis
L_Leg01 L_Hip
L_Leg02 L_Leg01
L_Leg03 L_Leg02
L_Foot L_Leg03
L_Toe1_01 L_Foot
L_Toe2_01 L_Foot
L_Toe3_01 L_Foot
planeAlignerLeft L_Foot
L_Toe1_02 L_Toe1_01
L_Toe1_03 L_Toe1_02
L_Toe2_02 L_Toe2_01
L_Toe2_03 L_Toe2_02
L_Toe3_02 L_Toe3_01
L_Toe3_03 L_Toe3_02
planeLockWeightLeft planeAlignerLeft
R_Leg01 R_Hip
R_Leg02 R_Leg01
R_Leg03 R_Leg02
R_Foot R_Leg03
planeAlignerRight R_Foot
R_Toe1_01 R_Foot
R_Toe2_01 R_Foot
R_Toe3_01 R_Foot
planeLockWeightRight planeAlignerRight
R_Toe1_02 R_Toe1_01
R_Toe1_03 R_Toe1_02
R_Toe2_02 R_Toe2_01
R_Toe2_03 R_Toe2_02
R_Toe3_02 R_Toe3_01
R_Toe3_03 R_Toe3_02
Rear_Leg02 Rear_Leg01
Rear_Leg03 Rear_Leg02
Rear_Leg04 Rear_Leg03
Rear_Foot Rear_Leg04
planeAlignerCenter Rear_Foot
Rear_Toe1_01 Rear_Foot
Rear_Toe2_01 Rear_Foot
Rear_Toe3_01 Rear_Foot
planeLockWeightCenter planeAlignerCenter
Rear_Toe1_02 Rear_Toe1_01
Rear_Toe1_03 Rear_Toe1_02
Rear_Toe2_02 Rear_Toe2_01
Rear_Toe2_03 Rear_Toe2_02
Rear_Toe3_02 Rear_Toe3_01
Rear_Toe3_03 Rear_Toe3_02
Back_Bone Spine1
Head Spine1
Motor_Bone Back_Bone
Ping_Mechanism Back_Bone
BN_LookIK Head
bottomMouth Head
L_Mouth01 Head
L_mouthFront Head
mouthGun Head
R_Mouth01 Head
R_mouthFront Head
TopMouth Head
weapon_bone Head
[BasePosition]
#SegmentName Tx, Ty, Tz, Rx, Ry, Rz, BoneLength
Pinger_Root 0.000000 0.000000 0.000000 -90.000000 0.000000 0.000000 10.000000 
Pelvis 0.000000 0.000000 0.000000 0.000000 0.000000 0.000000 10.000000 
L_Hip 0.000000 0.000000 0.000000 0.000000 0.000000 0.000000 10.000000 
R_Hip 0.000000 0.000000 0.000000 0.000000 0.000000 0.000000 10.000000 
Rear_Leg01 0.000000 0.000000 0.000000 0.000000 0.000000 0.000000 10.000000 
Spine1 0.000000 0.000000 0.000000 0.000000 0.000000 0.000000 10.000000 
L_Leg01 0.000000 0.000000 0.000000 0.000000 0.000000 0.000000 10.000000 
L_Leg02 0.000000 0.000000 0.000000 0.000000 0.000000 0.000000 10.000000 
L_Leg03 0.000000 0.000000 0.000000 0.000000 0.000000 0.000000 10.000000 
L_Foot 0.000000 0.000000 0.000000 0.000000 0.000000 0.000000 10.000000 
L_Toe1_01 0.000000 0.000000 0.000000 0.000000 0.000000 0.000000 10.000000 
L_Toe2_01 0.000000 0.000000 0.000000 0.000000 0.000000 0.000000 10.000000 
L_Toe3_01 0.000000 0.000000 0.000000 0.000000 0.000000 0.000000 10.000000 
planeAlignerLeft 0.000000 0.000000 0.000000 0.000000 0.000000 0.000000 10.000000 
L_Toe1_02 0.000000 0.000000 0.000000 0.000000 0.000000 0.000000 10.000000 
L_Toe1_03 0.000000 0.000000 0.000000 0.000000 0.000000 0.000000 10.000000 
L_Toe2_02 0.000000 0.000000 0.000000 0.000000 0.000000 0.000000 10.000000 
L_Toe2_03 0.000000 0.000000 0.000000 0.000000 0.000000 0.000000 10.000000 
L_Toe3_02 0.000000 0.000000 0.000000 0.000000 0.000000 0.000000 10.000000 
L_Toe3_03 0.000000 0.000000 0.000000 0.000000 0.000000 0.000000 10.000000 
planeLockWeightLeft 0.000000 0.000000 0.000000 0.000000 0.000000 0.000000 10.000000 
R_Leg01 0.000000 0.000000 0.000000 0.000000 0.000000 0.000000 10.000000 
R_Leg02 0.000000 0.000000 0.000000 0.000000 0.000000 0.000000 10.000000 
R_Leg03 0.000000 0.000000 0.000000 0.000000 0.000000 0.000000 10.000000 
R_Foot 0.000000 0.000000 0.000000 0.000000 0.000000 0.000000 10.000000 
planeAlignerRight 0.000000 0.000000 0.000000 0.000000 0.000000 0.000000 10.000000 
R_Toe1_01 0.000000 0.000000 0.000000 0.000000 0.000000 0.000000 10.000000 
R_Toe2_01 0.000000 0.000000 0.000000 0.000000 0.000000 0.000000 10.000000 
R_Toe3_01 0.000000 0.000000 0.000000 0.000000 0.000000 0.000000 10.000000 
planeLockWeightRight 0.000000 0.000000 0.000000 0.000000 0.000000 0.000000 10.000000 
R_Toe1_02 0.000000 0.000000 0.000000 0.000000 0.000000 0.000000 10.000000 
R_Toe1_03 0.000000 0.000000 0.000000 0.000000 0.000000 0.000000 10.000000 
R_Toe2_02 0.000000 0.000000 0.000000 0.000000 0.000000 0.000000 10.000000 
R_Toe2_03 0.000000 0.000000 0.000000 0.000000 0.000000 0.000000 10.000000 
R_Toe3_02 0.000000 0.000000 0.000000 0.000000 0.000000 0.000000 10.000000 
R_Toe3_03 0.000000 0.000000 0.000000 0.000000 0.000000 0.000000 10.000000 
Rear_Leg02 0.000000 0.000000 0.000000 0.000000 0.000000 0.000000 10.000000 
Rear_Leg03 0.000000 0.000000 0.000000 0.000000 0.000000 0.000000 10.000000 
Rear_Leg04 0.000000 0.000000 0.000000 0.000000 0.000000 0.000000 10.000000 
Rear_Foot 0.000000 0.000000 0.000000 0.000000 0.000000 0.000000 10.000000 
planeAlignerCenter 0.000000 0.000000 0.000000 0.000000 0.000000 0.000000 10.000000 
Rear_Toe1_01 0.000000 0.000000 0.000000 0.000000 0.000000 0.000000 10.000000 
Rear_Toe2_01 0.000000 0.000000 0.000000 0.000000 0.000000 0.000000 10.000000 
Rear_Toe3_01 0.000000 0.000000 0.000000 0.000000 0.000000 0.000000 10.000000 
planeLockWeightCenter 0.000000 0.000000 0.000000 0.000000 0.000000 0.000000 10.000000 
Rear_Toe1_02 0.000000 0.000000 0.000000 0.000000 0.000000 0.000000 10.000000 
Rear_Toe1_03 0.000000 0.000000 0.000000 0.000000 0.000000 0.000000 10.000000 
Rear_Toe2_02 0.000000 0.000000 0.000000 0.000000 0.000000 0.000000 10.000000 
Rear_Toe2_03 0.000000 0.000000 0.000000 0.000000 0.000000 0.000000 10.000000 
Rear_Toe3_02 0.000000 0.000000 0.000000 0.000000 0.000000 0.000000 10.000000 
Rear_Toe3_03 0.000000 0.000000 0.000000 0.000000 0.000000 0.000000 10.000000 
Back_Bone 0.000000 0.000000 0.000000 0.000000 0.000000 0.000000 10.000000 
Head 0.000000 0.000000 0.000000 0.000000 0.000000 0.000000 10.000000 
Motor_Bone 0.000000 0.000000 0.000000 0.000000 0.000000 0.000000 10.000000 
Ping_Mechanism 0.000000 0.000000 0.000000 0.000000 0.000000 0.000000 10.000000 
BN_LookIK 0.000000 0.000000 0.000000 0.000000 0.000000 0.000000 10.000000 
bottomMouth 0.000000 0.000000 0.000000 0.000000 0.000000 0.000000 10.000000 
L_Mouth01 0.000000 0.000000 0.000000 0.000000 0.000000 0.000000 10.000000 
L_mouthFront 0.000000 0.000000 0.000000 0.000000 0.000000 0.000000 10.000000 
mouthGun 0.000000 0.000000 0.000000 0.000000 0.000000 0.000000 10.000000 
R_Mouth01 0.000000 0.000000 0.000000 0.000000 0.000000 0.000000 10.000000 
R_mouthFront 0.000000 0.000000 0.000000 0.000000 0.000000 0.000000 10.000000 
TopMouth 0.000000 0.000000 0.000000 0.000000 0.000000 0.000000 10.000000 
weapon_bone 0.000000 0.000000 0.000000 0.000000 0.000000 0.000000 10.000000 
#Beginning of Data. Separated by tabs
#Fr	Tx	Ty	Tz	Rx	Ry	Rz	SF
[Pinger_Root]
21 0.000000 0.000000 0.000000 -0.000075 -0.000000 -0.000020 0.000000
22 0.000000 0.000000 0.000000 -0.000075 -0.000000 -0.000020 0.000000
23 0.000000 0.000000 0.000000 -0.000075 -0.000000 -0.000020 0.000000
[Pelvis]
21 -4.598526 274.937317 4022.622070 -165.274353 -81.795296 157.095810 4032.009277
22 22.808741 377.864014 4021.966553 -166.473373 -81.685799 158.793274 4039.741943
23 48.230175 482.375580 4021.765625 -167.633911 -81.571190 160.452316 4050.877686
[L_Hip]
21 5.766392 125.831482 872.656799 160.158691 -45.484905 122.312202 881.701050
22 5.766392 125.831482 872.656799 160.158691 -45.484905 122.312202 881.701050
23 5.766392 125.831482 872.656799 160.158691 -45.484905 122.312202 881.701050
[R_Hip]
21 5.765438 125.836372 -872.654907 47.483364 60.906315 130.803909 881.699829
22 5.765438 125.836372 -872.654907 53.211964 64.974960 135.205338 881.699829
23 5.765438 125.836372 -872.654907 60.677536 68.414177 141.573547 881.699829
[Rear_Leg01]
21 -192.298416 -925.602966 -0.001907 168.300400 -0.086269 -145.657913 945.367432
22 -192.298416 -925.602966 -0.001907 167.797180 -0.856193 -144.052292 945.367432
23 -192.298416 -925.602966 -0.001907 167.282486 -1.376257 -142.519699 945.367432
[Spine1]
21 290.604584 5.007505 0.000477 9.363493 3.877775 20.245150 290.647736
22 290.604584 5.007505 0.000477 9.009194 4.114287 21.260551 290.647736
23 290.604584 5.007505 0.000477 8.659046 4.357020 22.274780 290.647736
[L_Leg01]
21 761.932007 -0.002384 -0.069261 27.477009 -20.950125 9.851546 761.932068
22 761.932007 -0.002384 -0.069261 30.545378 -20.308231 7.105672 761.932068
23 761.932007 -0.002384 -0.069261 33.318153 -19.319223 4.534346 761.932068
[L_Leg02]
21 1441.140503 -0.000954 -0.000715 2.796313 -0.291418 -134.634399 1441.140503
22 1441.140503 -0.000954 -0.000715 3.387296 -0.164072 -136.017761 1441.140503
23 1441.140503 -0.000954 -0.000715 3.975029 -0.022502 -137.399734 1441.140503
[L_Leg03]
21 1686.963989 -0.000715 -0.000954 -0.019411 0.009236 115.816429 1686.963989
22 1686.963989 -0.000715 -0.000954 -0.031277 0.014123 119.032974 1686.963989
23 1686.963989 -0.000715 -0.000954 -0.042840 0.019664 122.246948 1686.963989
[L_Foot]
21 3041.570068 -30.715107 11.297464 -0.867687 8.859921 45.014942 3041.746094
22 3041.570068 -30.715107 11.297464 -1.753384 11.143123 45.644951 3041.746094
23 3041.570068 -30.715107 11.297464 -2.491881 13.368093 46.530140 3041.746094
[L_Toe1_01]
21 -188.216690 -224.732346 -21.137953 92.403976 -17.912926 -173.915466 293.899567
22 -188.216690 -224.732346 -21.137953 92.458817 -16.396275 -173.206223 293.899567
23 -188.216690 -224.732346 -21.137953 92.734375 -14.737823 -173.191101 293.899567
[L_Toe2_01]
21 200.746536 -219.926590 148.838394 -100.012215 -24.626642 -37.574173 332.896027
22 200.746536 -219.926590 148.838394 -98.453026 -25.242702 -39.952194 332.896027
23 200.746536 -219.926590 148.838394 -96.858536 -25.799416 -42.360580 332.896027
[L_Toe3_01]
21 188.832520 -219.859131 -191.078659 -104.353821 22.749792 -57.879639 347.140900
22 188.832520 -219.859131 -191.078659 -103.626244 20.964701 -59.057961 347.140900
23 188.832520 -219.859131 -191.078659 -102.868156 19.193947 -60.246887 347.140900
[planeAlignerLeft]
21 0.812531 -811.448792 -0.314951 0.000000 -90.000000 -90.001900 811.449280
22 0.812531 -811.448792 -0.314951 0.000000 -90.000000 -90.001900 811.449280
23 0.812531 -811.448792 -0.314951 0.000000 -90.000000 -90.001900 811.449280
[L_Toe1_02]
21 413.761139 0.000477 0.000000 0.001445 -18.571421 0.001445 413.761139
22 413.761139 0.000477 0.000000 0.001412 -22.436558 0.001412 413.761139
23 413.761139 0.000477 0.000000 0.001396 -24.451956 0.001396 413.761139
[L_Toe1_03]
21 464.317322 0.000358 -0.000089 0.001079 22.071964 -0.003137 464.317322
22 464.317322 0.000358 -0.000089 0.002372 30.684065 0.002372 464.317322
23 464.317322 0.000358 -0.000089 0.002667 37.785187 0.002667 464.317322
[L_Toe2_02]
21 342.235809 -0.000477 0.000238 0.001180 -78.140053 0.001180 342.235809
22 342.235809 -0.000477 0.000238 0.001181 -77.557152 0.001181 342.235809
23 342.235809 -0.000477 0.000238 0.001182 -76.677559 0.001182 342.235809
[L_Toe2_03]
21 420.210846 -0.000715 0.000000 -179.997360 75.002037 -179.993835 420.210846
22 420.210846 -0.000715 0.000000 -179.996292 77.936218 -179.992783 420.210846
23 420.210846 -0.000715 0.000000 -179.994186 81.280914 -179.990677 420.210846
[L_Toe3_02]
21 329.270111 0.000954 0.000000 0.004676 -84.539726 0.004676 329.270111
22 329.270111 0.000954 0.000000 0.004676 -84.372566 0.004676 329.270111
23 329.270111 0.000954 0.000000 -0.012792 -83.960121 0.020394 329.270111
[L_Toe3_03]
21 439.137451 -0.001907 0.000954 179.992813 50.640766 -179.999771 439.137451
22 439.137451 -0.001907 0.000954 179.992508 54.263100 179.999863 439.137451
23 439.137451 -0.001907 0.000954 179.992065 58.290257 179.999344 439.137451
[planeLockWeightLeft]
21 -0.000954 0.000238 -0.000305 -0.011826 -0.004376 0.005620 0.001029
22 -0.000954 0.000238 -0.000305 -0.011826 -0.004376 0.005620 0.001029
23 -0.000954 0.000238 -0.000305 -0.011826 -0.004376 0.005620 0.001029
[R_Leg01]
21 761.455627 -0.001907 -0.000358 105.742126 -29.963013 45.953129 761.455688
22 761.455627 -0.001907 -0.000358 104.017990 -28.632330 50.366104 761.455688
23 761.455627 -0.001907 -0.000358 102.228523 -27.081791 54.116432 761.455688
[R_Leg02]
21 1441.140625 0.000000 -0.000238 -0.381819 0.073562 -109.619583 1441.140625
22 1441.140625 0.000000 -0.000238 -0.572671 0.077108 -108.678551 1441.140625
23 1441.140625 0.000000 -0.000238 -0.763439 0.083788 -107.737549 1441.140625
[R_Leg03]
21 1686.963989 0.000954 0.001431 0.023886 -0.010478 116.769554 1686.963989
22 1686.963989 0.000954 0.001431 0.029151 -0.013269 117.966110 1686.963989
23 1686.963989 0.000954 0.001431 0.034355 -0.016168 119.162514 1686.963989
[R_Foot]
21 3041.560059 -30.531288 -11.204481 4.008648 -32.074520 40.969505 3041.734131
22 3041.560059 -30.531288 -11.204481 1.974540 -29.762547 42.296265 3041.734131
23 3041.560059 -30.531288 -11.204481 0.394653 -27.527409 43.266884 3041.734131
[planeAlignerRight]
21 -0.635147 -812.270569 -0.364304 0.000000 -89.960434 -90.005180 812.270874
22 -0.635147 -812.270569 -0.364304 0.000000 -89.960434 -90.005180 812.270874
23 -0.635147 -812.270569 -0.364304 0.000000 -89.960434 -90.005180 812.270874
[R_Toe1_01]
21 -188.383347 -224.864899 21.052242 78.327164 0.810639 -176.062744 294.101532
22 -188.383347 -224.864899 21.052242 78.327164 0.810639 -176.062744 294.101532
23 -188.383347 -224.864899 21.052242 78.327164 0.810639 -176.062744 294.101532
[R_Toe2_01]
21 200.637817 -220.002121 -148.787384 -90.800812 45.739063 -40.804123 332.857574
22 200.637817 -220.002121 -148.787384 -89.246208 45.940266 -40.803696 332.857574
23 200.637817 -220.002121 -148.787384 -87.686226 46.141331 -40.795380 332.857574
[R_Toe3_01]
21 188.606735 -220.092957 191.126343 -77.777176 -16.659966 -55.221592 347.192566
22 188.606735 -220.092957 191.126343 -77.777176 -16.659966 -55.221592 347.192566
23 188.606735 -220.092957 191.126343 -77.777176 -16.659966 -55.221592 347.192566
[planeLockWeightRight]
21 -0.000477 0.000000 0.000000 -0.011823 -0.004379 -0.000027 0.000477
22 -0.000477 0.000000 0.000000 -0.011823 -0.004379 -0.000027 0.000477
23 -0.000477 0.000000 0.000000 -0.011823 -0.004379 -0.000027 0.000477
[R_Toe1_02]
21 413.762085 0.000477 -0.000119 0.001534 -9.819362 0.001534 413.762085
22 413.762085 0.000477 -0.000119 0.001534 -9.819170 0.001534 413.762085
23 413.762085 0.000477 -0.000119 0.001534 -9.818981 0.001534 413.762085
[R_Toe1_03]
21 464.317810 0.000000 0.001088 0.001388 9.996440 -0.003176 464.317810
22 464.317810 0.000000 0.001088 0.001388 9.996246 -0.003176 464.317810
23 464.317810 0.000000 0.001088 0.001388 9.996058 -0.003176 464.317810
[R_Toe2_02]
21 342.234741 -0.000954 0.000238 -0.002332 -79.833969 -0.002332 342.234741
22 342.234741 -0.000954 0.000238 -0.002332 -79.833969 -0.002332 342.234741
23 342.234741 -0.000954 0.000238 -0.002332 -79.833969 -0.002332 342.234741
[R_Toe2_03]
21 420.210846 0.000715 -0.000268 -179.995636 64.198967 -179.999222 420.210846
22 420.210846 0.000715 -0.000268 -179.995636 64.198967 -179.999222 420.210846
23 420.210846 0.000715 -0.000268 -179.995636 64.198975 -179.999222 420.210846
[R_Toe3_02]
21 329.270355 -0.000477 -0.000954 0.001175 -84.659622 0.001175 329.270355
22 329.270355 -0.000477 -0.000954 0.001175 -84.657677 0.001175 329.270355
23 329.270355 -0.000477 -0.000954 0.001175 -84.655663 0.001175 329.270355
[R_Toe3_03]
21 439.137939 0.000238 0.001431 -179.997650 45.533470 -179.990097 439.137939
22 439.137939 0.000238 0.001431 -179.997650 45.533470 -179.990097 439.137939
23 439.137939 0.000238 0.001431 -179.997650 45.533470 -179.990097 439.137939
[Rear_Leg02]
21 1162.777710 -0.029802 0.005960 0.443969 -0.421820 -131.461685 1162.777710
22 1162.777710 -0.029802 0.005960 -0.168184 0.283517 -128.095886 1162.777710
23 1162.777710 -0.029802 0.005960 -0.674328 1.062467 -124.517288 1162.777710
[Rear_Leg03]
21 607.192505 -0.013351 -0.073195 0.010213 -0.005644 74.212440 607.192505
22 607.192505 -0.013351 -0.073195 0.010257 -0.005564 73.306229 607.192505
23 607.192505 -0.013351 -0.073195 0.010301 -0.005482 72.400017 607.192505
[Rear_Leg04]
21 995.874512 -0.020504 -0.011921 -0.043775 -0.015722 81.017227 995.874573
22 995.874512 -0.020504 -0.011921 -0.041874 -0.014681 78.720856 995.874573
23 995.874512 -0.020504 -0.011921 -0.041546 -0.015586 76.235291 995.874573
[Rear_Foot]
21 3096.176270 -0.067472 -0.041425 -72.133972 89.339729 109.041733 3096.176270
22 3096.176270 -0.067472 -0.041425 0.000000 89.713326 -177.726898 3096.176270
23 3096.176270 -0.067472 -0.041425 118.225685 88.793098 -58.402756 3096.176270
[planeAlignerCenter]
21 0.350077 0.966311 -838.790894 0.000009 0.000003 -179.999985 838.791565
22 0.350077 0.966311 -838.790894 0.000009 0.000003 -179.999985 838.791565
23 0.350077 0.966311 -838.790894 0.000009 0.000003 -179.999985 838.791565
[Rear_Toe1_01]
21 0.653352 83.966492 -371.173737 0.373602 22.834461 92.666077 380.553192
22 0.653352 83.966492 -371.173737 0.352787 22.830667 92.053238 380.553192
23 0.653352 83.966492 -371.173737 0.339310 22.832251 91.650711 380.553192
[Rear_Toe2_01]
21 178.200760 -294.826019 -362.060547 -8.808744 20.718899 -64.806847 499.765686
22 178.200760 -294.826019 -362.060547 -8.805593 20.716860 -65.392593 499.765686
23 178.200760 -294.826019 -362.060547 -8.802423 20.714853 -65.978340 499.765686
[Rear_Toe3_01]
21 -153.359680 -308.780914 -362.060852 4.025704 20.204094 -109.659943 499.952881
22 -153.359680 -308.780914 -362.060852 4.030820 20.208218 -110.401474 499.952881
23 -153.359680 -308.780914 -362.060852 4.036067 20.206242 -110.941422 499.952881
[planeLockWeightCenter]
21 -0.000062 0.000238 0.000000 -0.011814 -0.004373 -0.000015 0.000246
22 -0.000062 0.000238 0.000000 -0.011814 -0.004373 -0.000015 0.000246
23 -0.000062 0.000238 0.000000 -0.011814 -0.004373 -0.000015 0.000246
[Rear_Toe1_02]
21 379.707825 0.194073 0.000477 -0.002640 -33.267330 -0.002640 379.707855
22 379.707825 0.194073 0.000477 -0.002640 -33.266659 -0.002640 379.707855
23 379.707825 0.194073 0.000477 -0.002640 -33.265991 -0.002640 379.707855
[Rear_Toe1_03]
21 500.129700 0.165701 0.000119 -0.009106 83.930717 -0.012607 500.129761
22 500.129700 0.165701 0.000119 -0.009129 83.944046 -0.012631 500.129761
23 500.129700 0.165701 0.000119 -0.009153 83.957268 -0.012655 500.129761
[Rear_Toe2_02]
21 340.494507 0.000238 -0.000954 0.001188 -72.028076 0.001188 340.494507
22 340.494507 0.000238 -0.000954 0.001188 -72.016953 0.001188 340.494507
23 340.494507 0.000238 -0.000954 0.001188 -72.005806 0.001188 340.494507
[Rear_Toe2_03]
21 433.103577 0.000000 0.000238 0.008077 73.291222 0.008077 433.103546
22 433.103577 0.000000 0.000238 0.008065 73.265549 0.008065 433.103546
23 433.103577 0.000000 0.000238 0.008053 73.239876 0.008053 433.103546
[Rear_Toe3_02]
21 340.494141 -0.000358 -0.000477 0.001195 -68.534210 0.001195 340.494171
22 340.494141 -0.000358 -0.000477 0.001194 -68.604553 0.001194 340.494171
23 340.494141 -0.000358 -0.000477 0.001194 -68.617744 0.001194 340.494171
[Rear_Toe3_03]
21 433.103577 0.001431 -0.000238 0.006102 67.822861 0.006102 433.103546
22 433.103577 0.001431 -0.000238 0.006124 67.902000 0.006124 433.103546
23 433.103577 0.001431 -0.000238 0.006145 67.981110 0.006145 433.103546
[Back_Bone]
21 1312.175781 -701.934692 0.000954 -1.095670 5.238630 -83.915688 1488.125488
22 1312.175781 -701.934692 0.000954 -1.030901 5.234750 -83.951965 1488.125488
23 1312.175781 -701.934692 0.000954 -0.966130 5.230907 -83.988243 1488.125488
[Head]
21 1406.159424 809.709290 0.001431 3.666487 0.838412 13.295011 1622.625488
22 1406.159424 809.709290 0.001431 2.509187 0.538034 15.161262 1622.625488
23 1406.159424 809.709290 0.001431 1.343203 0.275652 17.032413 1622.625488
[Motor_Bone]
21 1158.364380 -417.834747 0.000477 -0.000105 0.000046 -105.985291 1231.419434
22 1158.364380 -417.834747 0.000477 -0.000105 0.000046 -105.985291 1231.419434
23 1158.364380 -417.834747 0.000477 -0.000105 0.000046 -105.985291 1231.419434
[Ping_Mechanism]
21 1215.975464 -429.619873 -36.914345 0.000103 -0.000053 82.120995 1290.167480
22 1216.703247 -429.523376 -38.154316 0.000103 -0.000053 82.120995 1290.857422
23 1217.430908 -429.426880 -39.394283 0.000103 -0.000053 82.120995 1291.548462
[BN_LookIK]
21 193.241119 1380.371704 -0.002861 0.000000 89.965736 -31.038179 1393.832153
22 193.241119 1380.371704 -0.002861 0.000000 89.965736 -31.038179 1393.832153
23 193.241119 1380.371704 -0.002861 0.000000 89.965736 -31.038179 1393.832153
[bottomMouth]
21 -435.092926 615.759399 -0.000954 -0.000022 0.000016 73.527184 753.966492
22 -435.092926 615.759399 -0.000954 -0.000022 0.000016 73.527184 753.966492
23 -435.092926 615.759399 -0.000954 -0.000022 0.000016 73.527184 753.966492
[L_Mouth01]
21 554.440979 7.658243 838.222046 150.204178 23.759130 109.605339 1005.027161
22 554.440979 7.658243 838.222046 150.204178 23.759130 109.605339 1005.027161
23 554.440979 7.658243 838.222046 150.204178 23.759130 109.605339 1005.027161
[L_mouthFront]
21 551.629089 934.514771 339.150421 0.000081 2.804060 79.119301 1136.941284
22 551.629089 934.514771 339.150421 0.000081 2.804060 79.119301 1136.941284
23 551.629089 934.514771 339.150421 0.000081 2.804060 79.119301 1136.941284
[mouthGun]
21 55.332661 1627.420898 0.000000 0.000023 0.000009 -11.038128 1628.361328
22 55.332661 1627.420898 0.000000 0.000023 0.000009 -11.038128 1628.361328
23 55.332661 1627.420898 0.000000 0.000023 0.000009 -11.038128 1628.361328
[R_Mouth01]
21 554.442383 7.659197 -838.223938 29.795891 -23.759109 109.605331 1005.029541
22 554.442383 7.659197 -838.223938 29.795891 -23.759109 109.605331 1005.029541
23 554.442383 7.659197 -838.223938 29.795891 -23.759109 109.605331 1005.029541
[R_mouthFront]
21 551.629089 934.514282 -339.151367 0.000029 -2.803930 79.119133 1136.941162
22 551.629089 934.514282 -339.151367 0.000029 -2.803930 79.119133 1136.941162
23 551.629089 934.514282 -339.151367 0.000029 -2.803930 79.119133 1136.941162
[TopMouth]
21 461.269867 -56.106091 -0.008583 -0.000059 -0.000268 92.025169 464.669525
22 461.269867 -56.106091 -0.008583 -0.000059 -0.000268 92.025169 464.669525
23 461.269867 -56.106091 -0.008583 -0.000059 -0.000268 92.025169 464.669525
[weapon_bone]
21 -987.239868 1448.372803 0.001431 0.000000 89.965736 -31.038221 1752.833740
22 -987.239868 1448.372803 0.001431 0.000000 89.965736 -31.038221 1752.833740
23 -987.239868 1448.372803 0.001431 0.000000 89.965736 -31.038221 1752.833740
